<svg xmlns="http://www.w3.org/2000/svg" width="320" height="240" viewBox="0 0 320 240" role="img" aria-labelledby="title desc">
  <title id="title">Pomodoro Celebration</title>
  <desc id="desc">A cheerful tomato character smiling with fireworks and confetti.</desc>
  <defs>
    <radialGradient id="bg" cx="50%" cy="25%" r="75%">
      <stop offset="0%" stop-color="#ffe1a8" />
      <stop offset="55%" stop-color="#ff9a8b" />
      <stop offset="100%" stop-color="#651fff" />
    </radialGradient>
    <linearGradient id="tomato" x1="0" y1="0" x2="1" y2="1">
      <stop offset="0%" stop-color="#ff655b" />
      <stop offset="100%" stop-color="#ff2d55" />
    </linearGradient>
    <linearGradient id="leaf" x1="0" y1="0" x2="1" y2="1">
      <stop offset="0%" stop-color="#8ce99a" />
      <stop offset="100%" stop-color="#2f9e44" />
    </linearGradient>
  </defs>
  <rect width="320" height="240" fill="url(#bg)" rx="24" />
  <g opacity="0.65">
    <circle cx="70" cy="50" r="6" fill="#ffd43b" />
    <circle cx="250" cy="36" r="5" fill="#66d9e8" />
    <circle cx="292" cy="84" r="4" fill="#ff8787" />
    <path d="M38 102l4-14 4 14h-8z" fill="#ff8787" />
    <path d="M278 162l6-18 6 18h-12z" fill="#ffd43b" />
    <rect x="44" y="180" width="6" height="20" rx="3" fill="#74c0fc" />
    <rect x="96" y="24" width="4" height="14" rx="2" fill="#b197fc" />
    <rect x="228" y="192" width="6" height="16" rx="3" fill="#ff8787" />
  </g>
  <g transform="translate(60 40)">
    <path d="M140 40c22 0 28 18 28 18l4 6c3 5 2 12-2 15l-7 5c-2 44-38 78-82 78s-80-34-82-78l-7-5c-4-3-5-10-2-15l4-6s6-18 28-18h118z" fill="url(#tomato)" />
    <ellipse cx="64" cy="94" rx="10" ry="14" fill="#fff" opacity="0.8" />
    <ellipse cx="174" cy="94" rx="10" ry="14" fill="#fff" opacity="0.8" />
    <circle cx="64" cy="96" r="6" fill="#2f2e41" />
    <circle cx="174" cy="96" r="6" fill="#2f2e41" />
    <path d="M82 138c14 12 52 12 66 0" fill="none" stroke="#2f2e41" stroke-width="6" stroke-linecap="round" />
    <path d="M112 0c10 0 24 6 32 18 4 6 5 13 3 18l-4 9c-2 4-7 5-11 3l-12-6-12 6c-4 2-9 1-11-3l-4-9c-2-5-1-12 3-18 8-12 22-18 32-18z" fill="url(#leaf)" transform="rotate(-12 112 0)" />
    <path d="M92 66c8-6 20-6 28 0" fill="none" stroke="#2f2e41" stroke-width="5" stroke-linecap="round" />
    <path d="M182 66c-8-6-20-6-28 0" fill="none" stroke="#2f2e41" stroke-width="5" stroke-linecap="round" />
    <circle cx="112" cy="108" r="5" fill="#fff" opacity="0.7" />
    <circle cx="126" cy="132" r="6" fill="#fff" opacity="0.5" />
  </g>
  <g opacity="0.7" stroke-width="4" stroke-linecap="round">
    <path d="M26 46l16 8" stroke="#ffd43b" />
    <path d="M30 54l-8 16" stroke="#66d9e8" />
    <path d="M294 46l-14 10" stroke="#ff8787" />
    <path d="M290 54l12 12" stroke="#74c0fc" />
  </g>
</svg>
